<mxfile host="app.diagrams.net" modified="2023-05-24T15:34:02.810Z" agent="Mozilla/5.0 (Windows NT 6.1; Win64; x64; rv:109.0) Gecko/20100101 Firefox/113.0" etag="33wFOES910T8_dHPecVY" version="21.3.3" type="device">
  <diagram name="Page-1" id="c4acf3e9-155e-7222-9cf6-157b1a14988f">
    <mxGraphModel dx="880" dy="1570" grid="1" gridSize="10" guides="1" tooltips="1" connect="1" arrows="1" fold="1" page="1" pageScale="1" pageWidth="850" pageHeight="1100" background="none" math="0" shadow="0">
      <root>
        <mxCell id="0" />
        <mxCell id="1" parent="0" />
        <mxCell id="5d2195bd80daf111-12" value="&lt;pre dir=&quot;ltr&quot; style=&quot;text-align: left;&quot; id=&quot;tw-target-text&quot; data-placeholder=&quot;ترجمه&quot; class=&quot;tw-data-text tw-text-large tw-ta&quot;&gt;&amp;lt;&amp;lt;screen&amp;gt;&amp;gt;&lt;br&gt;1) If the user has logged &lt;br&gt;in to his account,a hello user&lt;br&gt;message should be printed.&lt;br&gt;Otherwise, display the login &lt;br&gt;or registration option.&lt;br&gt;2) If the user has logged in &lt;br&gt;to his account, display the &lt;br&gt;balance in dollars and tomans&lt;br&gt;5) Display the menu option&lt;br&gt;6) help: print instructions&lt;/pre&gt;" style="verticalAlign=top;align=left;overflow=fill;fontSize=12;fontFamily=Helvetica;html=1;rounded=0;shadow=0;comic=0;labelBackgroundColor=none;strokeWidth=1;movable=0;resizable=0;rotatable=0;deletable=0;editable=0;locked=1;connectable=0;" parent="1" vertex="1">
          <mxGeometry y="-260" width="210" height="200" as="geometry" />
        </mxCell>
        <mxCell id="5d2195bd80daf111-18" value="&lt;p style=&quot;margin:0px;margin-top:4px;text-align:center;&quot;&gt;&lt;i&gt;&amp;lt;&amp;lt;user&amp;gt;&amp;gt;&lt;/i&gt;&lt;br&gt;&lt;/p&gt;&lt;hr size=&quot;1&quot;&gt;&lt;p style=&quot;margin:0px;margin-left:4px;&quot;&gt;+name: string&lt;br&gt;+ family: string&lt;/p&gt;&lt;p style=&quot;margin:0px;margin-left:4px;&quot;&gt;+password:string&lt;/p&gt;&lt;p style=&quot;margin:0px;margin-left:4px;&quot;&gt;+email:string&lt;/p&gt;&lt;p style=&quot;margin:0px;margin-left:4px;&quot;&gt;+phone number:long int&lt;br&gt;&lt;/p&gt;&lt;hr size=&quot;1&quot;&gt;&lt;p style=&quot;margin:0px;margin-left:4px;&quot;&gt;+ method1(Type): Type&lt;br&gt;+ method2(Type, Type): Type&lt;/p&gt;" style="verticalAlign=top;align=left;overflow=fill;fontSize=12;fontFamily=Helvetica;html=1;rounded=0;shadow=0;comic=0;labelBackgroundColor=none;strokeWidth=1;strokeColor=#000000;fontStyle=0;movable=0;resizable=0;rotatable=0;deletable=0;editable=0;locked=1;connectable=0;" parent="1" vertex="1">
          <mxGeometry y="-40" width="220" height="163" as="geometry" />
        </mxCell>
        <mxCell id="rLhGLWwCuN0kD63dX60u-16" style="edgeStyle=orthogonalEdgeStyle;rounded=0;orthogonalLoop=1;jettySize=auto;html=1;" edge="1" parent="1" source="5d2195bd80daf111-20" target="rLhGLWwCuN0kD63dX60u-15">
          <mxGeometry relative="1" as="geometry" />
        </mxCell>
        <mxCell id="5d2195bd80daf111-20" value="&lt;p style=&quot;margin:0px;margin-top:4px;text-align:center;&quot;&gt;&lt;i&gt;&amp;lt;&amp;lt;menu&amp;gt;&amp;gt;&lt;/i&gt;&lt;br&gt;&lt;/p&gt;&lt;hr size=&quot;1&quot;&gt;&lt;p style=&quot;margin:0px;margin-left:4px;&quot;&gt;+ buy: &lt;br&gt;+ sell:&lt;/p&gt;&lt;p style=&quot;margin:0px;margin-left:4px;&quot;&gt;+add balance:&lt;/p&gt;&lt;p style=&quot;margin:0px;margin-left:4px;&quot;&gt;+transaction list:&lt;/p&gt;&lt;p style=&quot;margin:0px;margin-left:4px;&quot;&gt;+log out:&lt;/p&gt;&lt;p style=&quot;margin:0px;margin-left:4px;&quot;&gt;+about us:print a string+&lt;/p&gt;&lt;p style=&quot;margin:0px;margin-left:4px;&quot;&gt;+show wallet:&lt;/p&gt;&lt;p style=&quot;margin:0px;margin-left:4px;&quot;&gt;&lt;br&gt;&lt;/p&gt;&lt;hr size=&quot;1&quot;&gt;&lt;p style=&quot;margin:0px;margin-left:4px;&quot;&gt;+ method1(Type): Type&lt;br&gt;+ method2(Type, Type): Type&lt;/p&gt;" style="verticalAlign=top;align=left;overflow=fill;fontSize=12;fontFamily=Helvetica;html=1;rounded=0;shadow=0;comic=0;labelBackgroundColor=none;strokeWidth=1;movable=0;resizable=0;rotatable=0;deletable=0;editable=0;locked=1;connectable=0;" parent="1" vertex="1">
          <mxGeometry x="20" y="135" width="190" height="270" as="geometry" />
        </mxCell>
        <mxCell id="rLhGLWwCuN0kD63dX60u-26" style="edgeStyle=orthogonalEdgeStyle;rounded=0;orthogonalLoop=1;jettySize=auto;html=1;exitX=1;exitY=0.5;exitDx=0;exitDy=0;" edge="1" parent="1" source="rLhGLWwCuN0kD63dX60u-1">
          <mxGeometry relative="1" as="geometry">
            <mxPoint x="220" y="-40" as="targetPoint" />
          </mxGeometry>
        </mxCell>
        <mxCell id="rLhGLWwCuN0kD63dX60u-1" value="&#xa;&lt;br&gt;&lt;pre dir=&quot;ltr&quot; style=&quot;text-align: left;&quot; id=&quot;tw-target-text&quot; data-placeholder=&quot;ترجمه&quot; class=&quot;tw-data-text tw-text-large tw-ta&quot;&gt;&lt;span class=&quot;Y2IQFc&quot; lang=&quot;en&quot;&gt;Check email and password every time. To be valid if login&lt;br&gt;We consider that it should be checked that the email matches one of the emails&lt;br&gt;be the same in the file&lt;br&gt; Otherwise, you should&lt;br&gt;does not match any of them (binary search)&lt;/span&gt;&lt;/pre&gt;&lt;br&gt;&lt;br&gt;&#xa;&#xa;" style="ellipse;whiteSpace=wrap;html=1;movable=0;resizable=0;rotatable=0;deletable=0;editable=0;locked=1;connectable=0;direction=west;" vertex="1" parent="1">
          <mxGeometry x="270" y="-320" width="640" height="180" as="geometry" />
        </mxCell>
        <mxCell id="rLhGLWwCuN0kD63dX60u-10" style="edgeStyle=orthogonalEdgeStyle;rounded=0;orthogonalLoop=1;jettySize=auto;html=1;entryX=1;entryY=0.5;entryDx=0;entryDy=0;" edge="1" parent="1" source="rLhGLWwCuN0kD63dX60u-8" target="5d2195bd80daf111-18">
          <mxGeometry relative="1" as="geometry" />
        </mxCell>
        <mxCell id="rLhGLWwCuN0kD63dX60u-8" value="&lt;br&gt;&lt;br&gt;&lt;div tabindex=&quot;0&quot; id=&quot;tw-target-text-container&quot; class=&quot;tw-ta-container F0azHf tw-nfl&quot;&gt;&lt;pre dir=&quot;ltr&quot; style=&quot;text-align: left;&quot; id=&quot;tw-target-text&quot; data-placeholder=&quot;ترجمه&quot; class=&quot;tw-data-text tw-text-large tw-ta&quot;&gt;&lt;span class=&quot;Y2IQFc&quot; lang=&quot;en&quot;&gt;with if and else&lt;br&gt;Check to enter the correct&lt;br&gt;prefix and the number of&lt;br&gt;digits is correct&lt;br&gt;If not,&lt;br&gt;a suitable message will be&lt;br&gt;printed&lt;/span&gt;&lt;/pre&gt;&lt;/div&gt;&lt;div id=&quot;tw-target-rmn-container&quot; class=&quot;tw-target-rmn tw-ta-container F0azHf tw-nfl&quot;&gt;&lt;pre dir=&quot;ltr&quot; style=&quot;text-align: left;&quot; id=&quot;tw-target-rmn&quot; data-placeholder=&quot;&quot; class=&quot;tw-data-placeholder tw-text-small tw-ta&quot;&gt;&lt;span class=&quot;Y2IQFc&quot;&gt;&lt;/span&gt;&lt;/pre&gt;&lt;/div&gt;&lt;br&gt;&lt;br&gt;&lt;br&gt;" style="ellipse;whiteSpace=wrap;html=1;fillStyle=solid;movable=0;resizable=0;rotatable=0;deletable=0;editable=0;locked=1;connectable=0;" vertex="1" parent="1">
          <mxGeometry x="290" y="-58.5" width="230" height="200" as="geometry" />
        </mxCell>
        <mxCell id="rLhGLWwCuN0kD63dX60u-14" style="edgeStyle=orthogonalEdgeStyle;rounded=0;orthogonalLoop=1;jettySize=auto;html=1;exitX=0;exitY=1;exitDx=0;exitDy=0;entryX=1;entryY=0.75;entryDx=0;entryDy=0;" edge="1" parent="1" source="rLhGLWwCuN0kD63dX60u-11" target="5d2195bd80daf111-18">
          <mxGeometry relative="1" as="geometry">
            <Array as="points">
              <mxPoint x="584" y="160" />
              <mxPoint x="220" y="160" />
            </Array>
          </mxGeometry>
        </mxCell>
        <mxCell id="rLhGLWwCuN0kD63dX60u-11" value="&lt;br&gt;&lt;div tabindex=&quot;0&quot; id=&quot;tw-target-text-container&quot; class=&quot;tw-ta-container F0azHf tw-nfl&quot;&gt;&lt;pre dir=&quot;ltr&quot; style=&quot;text-align: left;&quot; id=&quot;tw-target-text&quot; data-placeholder=&quot;ترجمه&quot; class=&quot;tw-data-text tw-text-large tw-ta&quot;&gt;&lt;span class=&quot;Y2IQFc&quot; lang=&quot;en&quot;&gt;The condition of validity of&lt;br&gt;the email is to have @ and.com&lt;br&gt;Only uppercase and lowercase&lt;br&gt;letters&lt;br&gt;It should consist of English letters&lt;br&gt;and numbers 0 to 9.&lt;br&gt;The password should be stored as &lt;br&gt;md5 hash and salted. &lt;br&gt;For this, every password of the &lt;br&gt;entered emails must be added with&lt;br&gt; a special character,for example,&lt;br&gt;(abc).&lt;/span&gt;&lt;/pre&gt;&lt;/div&gt;&lt;div id=&quot;tw-target-rmn-container&quot; class=&quot;tw-target-rmn tw-ta-container F0azHf tw-nfl&quot;&gt;&lt;pre dir=&quot;ltr&quot; style=&quot;text-align: left;&quot; id=&quot;tw-target-rmn&quot; data-placeholder=&quot;&quot; class=&quot;tw-data-placeholder tw-text-small tw-ta&quot;&gt;&lt;span class=&quot;Y2IQFc&quot;&gt;&lt;/span&gt;&lt;/pre&gt;&lt;/div&gt;&lt;br&gt;" style="ellipse;html=1;fontSize=14;whiteSpace=wrap;movable=0;resizable=0;rotatable=0;deletable=0;editable=0;locked=1;connectable=0;" vertex="1" parent="1">
          <mxGeometry x="530" y="-130" width="370" height="310" as="geometry" />
        </mxCell>
        <mxCell id="rLhGLWwCuN0kD63dX60u-15" value="&lt;br&gt;&lt;pre dir=&quot;ltr&quot; style=&quot;text-align: left;&quot; id=&quot;tw-target-text&quot; data-placeholder=&quot;ترجمه&quot; class=&quot;tw-data-text tw-text-large tw-ta&quot;&gt;&lt;span class=&quot;Y2IQFc&quot; lang=&quot;en&quot;&gt;The menu is controlled by the case switch.&lt;br&gt;The list of transactions along with the&lt;br&gt;date and time of the transaction is &lt;br&gt;stored in the file.&lt;br&gt;For this, a time stamp is used.&lt;/span&gt;&lt;/pre&gt;&lt;br&gt;" style="ellipse;whiteSpace=wrap;html=1;movable=0;resizable=0;rotatable=0;deletable=0;editable=0;locked=1;connectable=0;" vertex="1" parent="1">
          <mxGeometry x="230" y="170" width="320" height="200" as="geometry" />
        </mxCell>
        <mxCell id="rLhGLWwCuN0kD63dX60u-17" value="" style="edgeStyle=orthogonalEdgeStyle;rounded=0;html=1;dashed=1;labelBackgroundColor=none;startFill=0;endArrow=open;endFill=0;endSize=10;fontFamily=Verdana;fontSize=10;" edge="1" parent="1" source="5d2195bd80daf111-20" target="5d2195bd80daf111-19">
          <mxGeometry relative="1" as="geometry">
            <Array as="points" />
            <mxPoint x="140" y="405" as="sourcePoint" />
            <mxPoint x="190" y="978" as="targetPoint" />
          </mxGeometry>
        </mxCell>
        <mxCell id="5d2195bd80daf111-19" value="&lt;p style=&quot;margin:0px;margin-top:4px;text-align:center;&quot;&gt;&lt;i&gt;&amp;lt;&amp;lt;wallet&amp;gt;&amp;gt;&lt;/i&gt;&lt;br&gt;&lt;/p&gt;&lt;hr size=&quot;1&quot;&gt;&lt;p style=&quot;margin:0px;margin-left:4px;&quot;&gt;+toman:unsigned long long&amp;nbsp; &lt;br&gt;+ dollar:long int &lt;br&gt;&lt;/p&gt;&lt;hr size=&quot;1&quot;&gt;&lt;p style=&quot;margin:0px;margin-left:4px;&quot;&gt;+ method1(Type): Type&lt;br&gt;+ method2(Type, Type): Type&lt;/p&gt;" style="verticalAlign=top;align=left;overflow=fill;fontSize=12;fontFamily=Helvetica;html=1;rounded=0;shadow=0;comic=0;labelBackgroundColor=none;strokeWidth=1;movable=0;resizable=0;rotatable=0;deletable=0;editable=0;locked=1;connectable=0;" parent="1" vertex="1">
          <mxGeometry x="15" y="430" width="190" height="140" as="geometry" />
        </mxCell>
        <mxCell id="rLhGLWwCuN0kD63dX60u-20" style="edgeStyle=orthogonalEdgeStyle;rounded=0;orthogonalLoop=1;jettySize=auto;html=1;exitX=0.5;exitY=1;exitDx=0;exitDy=0;" edge="1" parent="1" source="rLhGLWwCuN0kD63dX60u-18">
          <mxGeometry relative="1" as="geometry">
            <mxPoint x="200" y="560" as="targetPoint" />
          </mxGeometry>
        </mxCell>
        <mxCell id="rLhGLWwCuN0kD63dX60u-18" value="&lt;br&gt;&lt;div tabindex=&quot;0&quot; id=&quot;tw-target-text-container&quot; class=&quot;tw-ta-container F0azHf tw-nfl&quot;&gt;&lt;pre dir=&quot;ltr&quot; style=&quot;text-align: left;&quot; id=&quot;tw-target-text&quot; data-placeholder=&quot;ترجمه&quot; class=&quot;tw-data-text tw-text-large tw-ta&quot;&gt;&lt;span class=&quot;Y2IQFc&quot; lang=&quot;en&quot;&gt;Buying and selling dollars:&lt;br&gt;1 Print the message (how many dollars?&lt;br&gt;And if the balance is not enough,print the &lt;br&gt;message&lt;br&gt;2)balance reduction in Tomans,increase in &lt;br&gt;dollars and vice versa.&lt;br&gt;3) Register the transaction in the transaction&lt;br&gt;list file along with date and time&lt;br&gt;4)Inventory update and display.&lt;br&gt;5) The appropriate message should be printed.&lt;/span&gt;&lt;/pre&gt;&lt;/div&gt;&lt;div id=&quot;tw-target-rmn-container&quot; class=&quot;tw-target-rmn tw-ta-container F0azHf tw-nfl&quot;&gt;&lt;pre dir=&quot;ltr&quot; style=&quot;text-align: left;&quot; id=&quot;tw-target-rmn&quot; data-placeholder=&quot;&quot; class=&quot;tw-data-placeholder tw-text-small tw-ta&quot;&gt;&lt;span class=&quot;Y2IQFc&quot;&gt;&lt;/span&gt;&lt;/pre&gt;&lt;/div&gt;&lt;div class=&quot;iYB33c&quot;&gt;&lt;div class=&quot;dlJLJe&quot;&gt;&lt;div data-ved=&quot;2ahUKEwiIhpr6kY7_AhXCy7sIHTvzAW8Qz_AEegQIBRAN&quot; data-cviv=&quot;false&quot; style=&quot;visibility:hidden;position:relative&quot;&gt;  &lt;span tabindex=&quot;0&quot; style=&quot;display:inline-block&quot; role=&quot;button&quot; data-width=&quot;0&quot; data-theme=&quot;0&quot; data-hover-open-delay=&quot;500&quot; data-hover-hide-delay=&quot;1000&quot; data-extra-container-classes=&quot;tw-verified-tooltip&quot; class=&quot;c5aZPb&quot;&gt; &lt;div class=&quot;U9URNb&quot;&gt; &lt;img data-frt=&quot;0&quot; data-atf=&quot;0&quot; alt=&quot;نماد «مورد تأیید انجمن»&quot; class=&quot;YQ4gaf zr758c wA1Bge&quot; src=&quot;data:image/png;base64,iVBORw0KGgoAAAANSUhEUgAAABQAAAAUCAQAAAAngNWGAAAA/0lEQVR4AYXNMSiEcRyA4cfmGHQbCZIipkuxnJgMStlMNmeyD2dwmc8+sZgxYJd9ErIZFHUyYYD7fkr6l4/rnvmtl7+KitrqV/fq2Y5eLY3Z9S48eRLe7BmVZ9qhTLhQ0algzZWQOVKSsCF8OjAnwbxDTWFDUhPK/jMr1H6HE/IqRky2DyvCefuwItwZzodVoYRiLqMkVCXrwpJ9twZ+sgfDYEFYl8wIWxZ9uFf7zkallxlJh4YrLGsKjZRx7VGHhLqwgFUN45DGdb8MeXGpgB4ABZdeDcpZEY51A+hyLKz4S1W4MQWm3AibWtgWmk6dyISa1pSdyWTOlLXVp0+eL9D/ZPfBTNanAAAAAElFTkSuQmCC&quot; id=&quot;dimg_1&quot; width=&quot;16&quot; height=&quot;16&quot;&gt;&lt;/div&gt;&lt;/span&gt;&lt;/div&gt;&lt;/div&gt;&lt;/div&gt;&lt;br&gt;" style="ellipse;whiteSpace=wrap;html=1;" vertex="1" parent="1">
          <mxGeometry x="220" y="380" width="410" height="290" as="geometry" />
        </mxCell>
        <mxCell id="rLhGLWwCuN0kD63dX60u-27" value="validation" style="triangle;whiteSpace=wrap;html=1;direction=west;fontStyle=3;verticalAlign=middle;fontSize=15;" vertex="1" parent="1">
          <mxGeometry x="600" y="230" width="140" height="140" as="geometry" />
        </mxCell>
      </root>
    </mxGraphModel>
  </diagram>
</mxfile>
